<svg xmlns="http://www.w3.org/2000/svg" width="1200" height="630" viewBox="0 0 1200 630">
  <rect width="1200" height="630" fill="#f5eddd"/>

  <g fill="#29241f" font-family="Helvetica Neue, Helvetica, Arial, sans-serif">
    <text x="64" y="73" font-size="30" font-weight="700" letter-spacing="-1">ui sfx</text>
    <text x="64" y="248" font-size="88" font-weight="700" letter-spacing="-4.5">Open-source</text>
    <text x="64" y="342" font-size="88" font-weight="700" letter-spacing="-4.5">UI sound effects.</text>
    <text x="68" y="406" fill="#6f675d" font-size="29" font-weight="400" letter-spacing="-0.6">A semantic sound system for every interface.</text>
  </g>

  <g transform="translate(157 53)" fill="#e84d2a">
    <rect x="0" y="7" width="5" height="12" rx="2.5"/>
    <rect x="10" y="0" width="5" height="26" rx="2.5"/>
    <rect x="20" y="4" width="5" height="18" rx="2.5"/>
  </g>

  <g transform="translate(870 98)">
    <rect width="266" height="354" rx="36" fill="#29241f"/>
    <g transform="translate(48 67)">
      <rect x="0" y="82" width="14" height="56" rx="7" fill="#f5eddd"/>
      <rect x="26" y="56" width="14" height="108" rx="7" fill="#f5eddd"/>
      <rect x="52" y="29" width="14" height="162" rx="7" fill="#e84d2a"/>
      <rect x="78" y="0" width="14" height="220" rx="7" fill="#e84d2a"/>
      <rect x="104" y="35" width="14" height="150" rx="7" fill="#e84d2a"/>
      <rect x="130" y="64" width="14" height="92" rx="7" fill="#f5eddd"/>
      <rect x="156" y="88" width="14" height="44" rx="7" fill="#f5eddd"/>
    </g>
  </g>

  <g font-family="Helvetica Neue, Helvetica, Arial, sans-serif">
    <text x="68" y="546" fill="#29241f" font-size="25" font-weight="700">936 sounds</text>
    <circle cx="242" cy="538" r="4" fill="#e84d2a"/>
    <text x="266" y="546" fill="#29241f" font-size="25" font-weight="700">78 semantic cues</text>
    <circle cx="491" cy="538" r="4" fill="#e84d2a"/>
    <text x="515" y="546" fill="#29241f" font-size="25" font-weight="700">12 feels</text>
    <text x="68" y="590" fill="#756d62" font-size="17" font-weight="600" letter-spacing="2.3">CC0 AUDIO · MIT RUNTIME</text>
  </g>
</svg>
